<svg width="1920" height="1080" viewBox="0 0 1920 1080" xmlns="http://www.w3.org/2000/svg"><rect width="1920" height="1080" fill="#d3cfcf"/><path d="M 0,1080 C 0,1080 0,180 0,180 C 127.2435897435897,199.71282051282049 254.4871794871794,219.425641025641 357,209 C 459.5128205128206,198.574358974359 537.2948717948719,158.01025641025643 616,169 C 694.7051282051281,179.98974358974357 774.3333333333333,242.5333333333333 901,234 C 1027.6666666666667,225.4666666666667 1201.371794871795,145.85641025641027 1317,120 C 1432.628205128205,94.14358974358973 1490.179487179487,122.04102564102564 1581,141 C 1671.820512820513,159.95897435897436 1795.9102564102564,169.9794871794872 1920,180 C 1920,180 1920,1080 1920,1080 Z" fill="#000000" opacity="0.09999999999999999"/><path d="M 0,1080 C 0,1080 0,360 0,360 C 104.80512820512823,348.1692307692308 209.61025641025645,336.33846153846156 333,333 C 456.38974358974355,329.66153846153844 598.3641025641025,334.8153846153846 695,335 C 791.6358974358975,335.1846153846154 842.9333333333334,330.40000000000003 927,347 C 1011.0666666666666,363.59999999999997 1127.9025641025642,401.5846153846154 1237,412 C 1346.0974358974358,422.4153846153846 1447.4564102564102,405.26153846153846 1560,392 C 1672.5435897435898,378.73846153846154 1796.271794871795,369.36923076923074 1920,360 C 1920,360 1920,1080 1920,1080 Z" fill="#000000" opacity="0.19999999999999998"/><path d="M 0,1080 C 0,1080 0,540 0,540 C 108.34615384615384,546.8410256410257 216.69230769230768,553.6820512820512 313,534 C 409.3076923076923,514.3179487179488 493.5769230769231,468.1128205128205 590,478 C 686.4230769230769,487.8871794871795 795,553.8666666666668 900,552 C 1005,550.1333333333332 1106.4230769230771,480.4205128205127 1224,476 C 1341.5769230769229,471.5794871794873 1475.3076923076922,532.4512820512821 1594,554 C 1712.6923076923078,575.5487179487179 1816.3461538461538,557.774358974359 1920,540 C 1920,540 1920,1080 1920,1080 Z" fill="#000000" opacity="0.3"/><path d="M 0,1080 C 0,1080 0,720 0,720 C 111.52564102564105,699.1769230769231 223.0512820512821,678.3538461538462 335,694 C 446.9487179487179,709.6461538461538 559.3205128205127,761.7615384615384 671,744 C 782.6794871794873,726.2384615384616 893.6666666666667,638.5999999999999 989,652 C 1084.3333333333333,665.4000000000001 1164.0128205128206,779.8384615384616 1253,786 C 1341.9871794871794,792.1615384615384 1440.2820512820515,690.0461538461539 1553,661 C 1665.7179487179485,631.9538461538461 1792.8589743589741,675.9769230769231 1920,720 C 1920,720 1920,1080 1920,1080 Z" fill="#000000" opacity="0.39999999999999997"/><path d="M 0,1080 C 0,1080 0,900 0,900 C 103.83589743589746,910.0256410256411 207.67179487179493,920.0512820512821 327,905 C 446.32820512820507,889.9487179487179 581.1487179487178,849.8205128205128 691,842 C 800.8512820512822,834.1794871794872 885.7333333333333,858.6666666666667 991,869 C 1096.2666666666667,879.3333333333333 1221.9179487179485,875.5128205128206 1329,863 C 1436.0820512820515,850.4871794871794 1524.594871794872,829.2820512820514 1620,834 C 1715.405128205128,838.7179487179486 1817.7025641025639,869.3589743589744 1920,900 C 1920,900 1920,1080 1920,1080 Z" fill="#000000" opacity="0.49999999999999994"/></svg>